<svg width="200" height="200" viewBox="0 0 200 200" fill="none" xmlns="http://www.w3.org/2000/svg">
<rect width="200" height="200" rx="33" fill="black"/>
<rect x="50" y="132" width="101" height="7" rx="3.5" fill="white"/>
<path d="M124.236 97.4659H127.869V101.099H124.236V97.4659ZM120.602 97.4659H124.236V101.099H120.602V97.4659ZM116.969 97.4659H120.602V101.099H116.969V97.4659ZM116.969 101.099H120.602V104.733H116.969V101.099ZM120.602 101.099H124.236V104.733H120.602V101.099ZM116.969 104.733H120.602V108.366H116.969V104.733ZM113.335 104.733H116.969V108.366H113.335V104.733ZM120.602 104.733H124.236V108.366H120.602V104.733ZM113.335 108.366H116.969V112H113.335V108.366ZM109.702 108.366H113.335V112H109.702V108.366ZM106.068 108.366H109.702V112H106.068V108.366ZM102.435 108.366H106.068V112H102.435V108.366ZM98.8012 108.366H102.435V112H98.8012V108.366ZM95.1676 108.366H98.8012V112H95.1676V108.366ZM91.5341 108.366H95.1676V112H91.5341V108.366ZM91.5341 104.733H95.1676V108.366H91.5341V104.733ZM87.9006 104.733H91.5341V108.366H87.9006V104.733ZM84.2671 104.733H87.9006V108.366H84.2671V104.733ZM84.2671 101.099H87.9006V104.733H84.2671V101.099ZM87.9006 101.099H91.5341V104.733H87.9006V101.099ZM91.5341 101.099H95.1676V104.733H91.5341V101.099ZM95.1676 101.099H98.8012V104.733H95.1676V101.099ZM98.8012 101.099H102.435V104.733H98.8012V101.099ZM102.435 101.099H106.068V104.733H102.435V101.099ZM106.068 101.099H109.702V104.733H106.068V101.099ZM109.702 101.099H113.335V104.733H109.702V101.099ZM113.335 101.099H116.969V104.733H113.335V101.099ZM109.702 104.733H113.335V108.366H109.702V104.733ZM106.068 104.733H109.702V108.366H106.068V104.733ZM102.435 104.733H106.068V108.366H102.435V104.733ZM98.8012 104.733H102.435V108.366H98.8012V104.733ZM95.1676 104.733H98.8012V108.366H95.1676V104.733ZM87.9006 97.4659H91.5341V101.099H87.9006V97.4659ZM84.2671 97.4659H87.9006V101.099H84.2671V97.4659ZM80.6335 97.4659H84.2671V101.099H80.6335V97.4659ZM87.9006 93.8324H91.5341V97.4659H87.9006V93.8324ZM91.5341 93.8324H95.1676V97.4659H91.5341V93.8324ZM95.1676 97.4659H98.8012V101.099H95.1676V97.4659ZM91.5341 97.4659H95.1676V101.099H91.5341V97.4659ZM84.2671 93.8324H87.9006V97.4659H84.2671V93.8324ZM84.2671 90.1988H87.9006V93.8324H84.2671V90.1988ZM80.6335 90.1988H84.2671V93.8324H80.6335V90.1988ZM80.6335 86.5653H84.2671V90.1988H80.6335V86.5653ZM80.6335 93.8324H84.2671V97.4659H80.6335V93.8324ZM80.6335 82.9318H84.2671V86.5653H80.6335V82.9318ZM84.2671 82.9318H87.9006V86.5653H84.2671V82.9318ZM87.9006 82.9318H91.5341V86.5653H87.9006V82.9318ZM91.5341 82.9318H95.1676V86.5653H91.5341V82.9318ZM91.5341 86.5653H95.1676V90.1988H91.5341V86.5653ZM91.5341 90.1988H95.1676V93.8324H91.5341V90.1988ZM87.9006 86.5653H91.5341V90.1988H87.9006V86.5653ZM84.2671 86.5653H87.9006V90.1988H84.2671V86.5653ZM87.9006 90.1988H91.5341V93.8324H87.9006V90.1988ZM98.8012 97.4659H102.435V101.099H98.8012V97.4659ZM102.435 97.4659H106.068V101.099H102.435V97.4659ZM106.068 97.4659H109.702V101.099H106.068V97.4659ZM109.702 97.4659H113.335V101.099H109.702V97.4659ZM113.335 97.4659H116.969V101.099H113.335V97.4659ZM113.335 93.8324H116.969V97.4659H113.335V93.8324ZM109.702 93.8324H113.335V97.4659H109.702V93.8324ZM116.969 93.8324H120.602V97.4659H116.969V93.8324ZM120.602 93.8324H124.236V97.4659H120.602V93.8324ZM120.602 90.1988H124.236V93.8324H120.602V90.1988ZM124.236 90.1988H127.869V93.8324H124.236V90.1988ZM124.236 86.5653H127.869V90.1988H124.236V86.5653ZM124.236 93.8324H127.869V97.4659H124.236V93.8324ZM124.236 82.9318H127.869V86.5653H124.236V82.9318ZM124.236 79.2982H127.869V82.9318H124.236V79.2982ZM120.602 68.3976H124.236V72.0312H120.602V68.3976ZM120.602 64.7641H124.236V68.3976H120.602V64.7641ZM116.969 68.3976H120.602V72.0312H116.969V68.3976ZM113.335 68.3976H116.969V72.0312H113.335V68.3976ZM113.335 72.0312H116.969V75.6647H113.335V72.0312ZM113.335 75.6647H116.969V79.2982H113.335V75.6647ZM113.335 79.2982H116.969V82.9318H113.335V79.2982ZM113.335 82.9318H116.969V86.5653H113.335V82.9318ZM113.335 86.5653H116.969V90.1988H113.335V86.5653ZM113.335 90.1988H116.969V93.8324H113.335V90.1988ZM116.969 90.1988H120.602V93.8324H116.969V90.1988ZM116.969 86.5653H120.602V90.1988H116.969V86.5653ZM120.602 86.5653H124.236V90.1988H120.602V86.5653ZM120.602 82.9318H124.236V86.5653H120.602V82.9318ZM120.602 79.2982H124.236V82.9318H120.602V79.2982ZM120.602 75.6647H124.236V79.2982H120.602V75.6647ZM116.969 72.0312H120.602V75.6647H116.969V72.0312ZM116.969 75.6647H120.602V79.2982H116.969V75.6647ZM116.969 79.2982H120.602V82.9318H116.969V79.2982ZM116.969 82.9318H120.602V86.5653H116.969V82.9318ZM124.236 64.7641H127.869V68.3976H124.236V64.7641ZM124.236 61.1306H127.869V64.7641H124.236V61.1306ZM124.236 57.4971H127.869V61.1306H124.236V57.4971ZM124.236 53.8635H127.869V57.4971H124.236V53.8635ZM124.236 50.23H127.869V53.8635H124.236V50.23ZM120.602 50.23H124.236V53.8635H120.602V50.23ZM120.602 46.5965H124.236V50.23H120.602V46.5965ZM120.602 42.9629H124.236V46.5965H120.602V42.9629ZM116.969 42.9629H120.602V46.5965H116.969V42.9629ZM113.335 42.9629H116.969V46.5965H113.335V42.9629ZM116.969 64.7641H120.602V68.3976H116.969V64.7641ZM116.969 61.1306H120.602V64.7641H116.969V61.1306ZM116.969 57.4971H120.602V61.1306H116.969V57.4971ZM120.602 57.4971H124.236V61.1306H120.602V57.4971ZM120.602 53.8635H124.236V57.4971H120.602V53.8635ZM120.602 61.1306H124.236V64.7641H120.602V61.1306ZM113.335 64.7641H116.969V68.3976H113.335V64.7641ZM113.335 61.1306H116.969V64.7641H113.335V61.1306ZM116.969 53.8635H120.602V57.4971H116.969V53.8635ZM113.335 53.8635H116.969V57.4971H113.335V53.8635ZM113.335 57.4971H116.969V61.1306H113.335V57.4971ZM109.702 53.8635H113.335V57.4971H109.702V53.8635ZM109.702 50.23H113.335V53.8635H109.702V50.23ZM113.335 46.5965H116.969V50.23H113.335V46.5965ZM116.969 46.5965H120.602V50.23H116.969V46.5965ZM116.969 50.23H120.602V53.8635H116.969V50.23ZM113.335 50.23H116.969V53.8635H113.335V50.23ZM109.702 46.5965H113.335V50.23H109.702V46.5965ZM109.702 42.9629H113.335V46.5965H109.702V42.9629ZM109.702 39.3294H113.335V42.9629H109.702V39.3294ZM113.335 39.3294H116.969V42.9629H113.335V39.3294ZM106.068 39.3294H109.702V42.9629H106.068V39.3294ZM102.435 39.3294H106.068V42.9629H102.435V39.3294ZM98.8012 39.3294H102.435V42.9629H98.8012V39.3294ZM95.1676 39.3294H98.8012V42.9629H95.1676V39.3294ZM95.1676 42.9629H98.8012V46.5965H95.1676V42.9629ZM91.5341 42.9629H95.1676V46.5965H91.5341V42.9629ZM91.5341 39.3294H95.1676V42.9629H91.5341V39.3294ZM87.9006 42.9629H91.5341V46.5965H87.9006V42.9629ZM84.2671 42.9629H87.9006V46.5965H84.2671V42.9629ZM84.2671 46.5965H87.9006V50.23H84.2671V46.5965ZM84.2671 50.23H87.9006V53.8635H84.2671V50.23ZM80.6335 50.23H84.2671V53.8635H80.6335V50.23ZM80.6335 53.8635H84.2671V57.4971H80.6335V53.8635ZM84.2671 53.8635H87.9006V57.4971H84.2671V53.8635ZM87.9006 53.8635H91.5341V57.4971H87.9006V53.8635ZM91.5341 53.8635H95.1676V57.4971H91.5341V53.8635ZM95.1676 50.23H98.8012V53.8635H95.1676V50.23ZM98.8012 50.23H102.435V53.8635H98.8012V50.23ZM102.435 50.23H106.068V53.8635H102.435V50.23ZM106.068 50.23H109.702V53.8635H106.068V50.23ZM106.068 42.9629H109.702V46.5965H106.068V42.9629ZM106.068 46.5965H109.702V50.23H106.068V46.5965ZM102.435 46.5965H106.068V50.23H102.435V46.5965ZM98.8012 46.5965H102.435V50.23H98.8012V46.5965ZM102.435 42.9629H106.068V46.5965H102.435V42.9629ZM98.8012 42.9629H102.435V46.5965H98.8012V42.9629ZM95.1676 46.5965H98.8012V50.23H95.1676V46.5965ZM91.5341 46.5965H95.1676V50.23H91.5341V46.5965ZM91.5341 50.23H95.1676V53.8635H91.5341V50.23ZM87.9006 50.23H91.5341V53.8635H87.9006V50.23ZM87.9006 46.5965H91.5341V50.23H87.9006V46.5965ZM87.9006 57.4971H91.5341V61.1306H87.9006V57.4971ZM87.9006 61.1306H91.5341V64.7641H87.9006V61.1306ZM87.9006 64.7641H91.5341V68.3976H87.9006V64.7641ZM87.9006 68.3976H91.5341V72.0312H87.9006V68.3976ZM91.5341 68.3976H95.1676V72.0312H91.5341V68.3976ZM91.5341 72.0312H95.1676V75.6647H91.5341V72.0312ZM91.5341 64.7641H95.1676V68.3976H91.5341V64.7641ZM91.5341 61.1306H95.1676V64.7641H91.5341V61.1306ZM91.5341 57.4971H95.1676V61.1306H91.5341V57.4971ZM91.5341 75.6647H95.1676V79.2982H91.5341V75.6647ZM91.5341 79.2982H95.1676V82.9318H91.5341V79.2982ZM87.9006 79.2982H91.5341V82.9318H87.9006V79.2982ZM84.2671 79.2982H87.9006V82.9318H84.2671V79.2982ZM80.6335 75.6647H84.2671V79.2982H80.6335V75.6647ZM80.6335 79.2982H84.2671V82.9318H80.6335V79.2982ZM80.6335 72.0312H84.2671V75.6647H80.6335V72.0312ZM80.6335 68.3976H84.2671V72.0312H80.6335V68.3976ZM80.6335 64.7641H84.2671V68.3976H80.6335V64.7641ZM80.6335 61.1306H84.2671V64.7641H80.6335V61.1306ZM80.6335 57.4971H84.2671V61.1306H80.6335V57.4971ZM84.2671 61.1306H87.9006V64.7641H84.2671V61.1306ZM84.2671 64.7641H87.9006V68.3976H84.2671V64.7641ZM84.2671 68.3976H87.9006V72.0312H84.2671V68.3976ZM84.2671 72.0312H87.9006V75.6647H84.2671V72.0312ZM84.2671 75.6647H87.9006V79.2982H84.2671V75.6647ZM87.9006 75.6647H91.5341V79.2982H87.9006V75.6647ZM87.9006 72.0312H91.5341V75.6647H87.9006V72.0312ZM84.2671 57.4971H87.9006V61.1306H84.2671V57.4971ZM87.9006 39.3294H91.5341V42.9629H87.9006V39.3294ZM84.2671 39.3294H87.9006V42.9629H84.2671V39.3294ZM80.6335 39.3294H84.2671V42.9629H80.6335V39.3294ZM80.6335 42.9629H84.2671V46.5965H80.6335V42.9629ZM80.6335 46.5965H84.2671V50.23H80.6335V46.5965ZM80.6335 101.099H84.2671V104.733H80.6335V101.099ZM80.6335 104.733H84.2671V108.366H80.6335V104.733ZM80.6335 108.366H84.2671V112H80.6335V108.366ZM84.2671 108.366H87.9006V112H84.2671V108.366ZM87.9006 108.366H91.5341V112H87.9006V108.366ZM95.1676 75.6647H98.8012V79.2982H95.1676V75.6647ZM95.1676 72.0312H98.8012V75.6647H95.1676V72.0312ZM95.1676 68.3976H98.8012V72.0312H95.1676V68.3976ZM95.1676 79.2982H98.8012V82.9318H95.1676V79.2982ZM98.8012 79.2982H102.435V82.9318H98.8012V79.2982ZM102.435 79.2982H106.068V82.9318H102.435V79.2982ZM106.068 79.2982H109.702V82.9318H106.068V79.2982ZM109.702 79.2982H113.335V82.9318H109.702V79.2982ZM109.702 75.6647H113.335V79.2982H109.702V75.6647ZM109.702 72.0312H113.335V75.6647H109.702V72.0312ZM109.702 68.3976H113.335V72.0312H109.702V68.3976ZM106.068 68.3976H109.702V72.0312H106.068V68.3976ZM102.435 68.3976H106.068V72.0312H102.435V68.3976ZM98.8012 68.3976H102.435V72.0312H98.8012V68.3976ZM98.8012 72.0312H102.435V75.6647H98.8012V72.0312ZM98.8012 75.6647H102.435V79.2982H98.8012V75.6647ZM102.435 75.6647H106.068V79.2982H102.435V75.6647ZM106.068 75.6647H109.702V79.2982H106.068V75.6647ZM106.068 72.0312H109.702V75.6647H106.068V72.0312ZM102.435 72.0312H106.068V75.6647H102.435V72.0312ZM109.702 64.7641H113.335V68.3976H109.702V64.7641ZM109.702 82.9318H113.335V86.5653H109.702V82.9318Z" fill="white"/>
</svg>
